<svg fill="none" viewBox="0 0 154 95" height="95" width="154" xmlns="http://www.w3.org/2000/svg">
  <g opacity="0.15">
    <path fill="#0C2752" d="M151.45 78.3375C152.392 79.0732 153.145 79.9098 152.976 83.6892C153.073 84.2652 131.674 94.3045 104.167 94.3045C96.743 94.3045 88.028 93.3754 82.1507 91.0043C73.936 87.6915 46.4204 76.9291 46.4204 79.1194V94.1153L12.0229 94.1615C12.0229 94.1615 3.68623 75.0793 1.62204 70.6482C1.42865 70.2278 1.2731 69.8999 1.08812 69.4753C0.983021 69.2273 0.962 68.8027 1.07971 68.5336C1.29832 68.0333 1.88269 67.7096 2.34934 67.533C3.07244 67.2556 3.56011 67.2556 4.31684 67.2051L4.35467 67.1631C6.81825 69.345 10.8289 70.0302 13.8853 70.4717C19.4388 71.2704 25.047 71.1527 30.651 71.1653C32.1603 71.1653 33.6653 71.178 35.1704 71.2242C35.3596 71.2242 35.553 71.2326 35.7421 71.2368C41.6488 71.4302 47.6648 72.6578 53.3445 74.2805C54.9883 74.7514 56.6363 75.2559 58.2296 75.8781C58.2296 75.8781 80.3556 85.085 80.3598 85.085C85.186 87.0903 90.2393 88.3221 95.4313 88.9569C108.258 90.5208 121.4 88.6794 133.713 84.9672C137.228 83.9078 140.68 82.7433 144.114 81.3139C146.41 80.3596 148.915 78.6738 148.894 77.8834C149.399 77.8582 150.635 77.7026 151.45 78.3375Z"></path>
    <path stroke-linejoin="round" stroke-linecap="round" stroke="#0C2752" d="M66.4191 1.13867C66.2678 4.16139 66.2467 7.49941 66.3434 10.85C66.3981 12.725 66.4906 14.6001 66.6167 16.433C66.747 18.2912 66.911 20.099 67.1128 21.8058C67.9704 29.0872 70.5139 34.7669 74.7473 40.7787C84.1476 54.1266 99.2612 65.5532 115.779 67.403C120.984 67.9831 126.239 67.815 131.46 68.0756C135.681 68.2858 140.394 68.8576 144.06 71.1404C145.056 71.7626 145.96 72.5193 146.754 73.3853C147.389 74.079 147.919 74.8694 148.327 75.7144C148.604 76.2945 148.894 77.0387 148.894 77.8837C149.399 77.8584 150.635 77.7029 151.45 78.3377C152.392 79.0734 153.145 79.91 152.976 83.6895C153.073 84.2654 131.674 94.3047 104.167 94.3047C96.743 94.3047 88.028 93.3756 82.1507 91.0045C73.936 87.6917 46.4204 76.9294 46.4204 79.1197V94.1155L12.0229 94.1618C12.0229 94.1618 3.68623 75.0796 1.62204 70.6485C1.42865 70.2281 1.2731 69.9002 1.08812 69.4756C0.983021 69.2275 0.962 68.8029 1.07971 68.5339C1.29832 68.0336 1.88269 67.7099 2.34934 67.5333C3.07244 67.2558 3.56011 67.2558 4.31684 67.2054"></path>
    <path stroke-linejoin="round" stroke-linecap="round" stroke="#0C2752" d="M4.09407 1.0127C5.80512 11.0352 5.13668 21.8228 4.1193 32.3749C3.9175 34.4643 3.7031 36.5412 3.49289 38.6011C3.11453 42.2292 2.74878 45.8027 2.47131 49.2794C2.39564 50.2716 2.31996 51.2637 2.24849 52.2559C2.18964 53.1472 2.13078 54.0426 2.08033 54.9339C2.03829 55.7284 2.00045 56.5188 1.97523 57.3134C1.90376 59.5079 1.77344 61.9042 2.36621 64.0399C2.72776 65.3347 3.43404 66.3563 4.35472 67.1635C6.8183 69.3454 10.829 70.0306 13.8853 70.4721C19.4389 71.2708 25.0471 71.1531 30.6511 71.1657C32.1603 71.1657 33.6654 71.1783 35.1704 71.2246C35.3596 71.2246 35.553 71.233 35.7422 71.2372C41.6489 71.4306 47.6649 72.6582 53.3446 74.2809C54.9883 74.7518 56.6363 75.2563 58.2297 75.8785C58.2297 75.8785 80.3556 85.0854 80.3598 85.0854C85.1861 87.0907 90.2393 88.3225 95.4313 88.9573C108.258 90.5212 121.4 88.6798 133.713 84.9676C137.228 83.9082 140.68 82.7437 144.114 81.3143C146.41 80.36 148.915 78.6742 148.894 77.8838"></path>
    <path stroke-linejoin="round" stroke-linecap="round" stroke="#0C2752" d="M30.6509 45.8535V46.3328V71.1157"></path>
    <path stroke-linejoin="round" stroke-linecap="round" stroke="#0C2752" d="M30.651 1V40.4508"></path>
    <path stroke-linejoin="round" stroke-linecap="round" stroke="#0C2752" d="M35.1748 45.0166V45.1974V71.1154"></path>
    <path stroke-linejoin="round" stroke-linecap="round" stroke="#0C2752" d="M35.1748 1V39.4713"></path>
    <path stroke-linejoin="round" stroke-linecap="round" stroke="#0C2752" d="M4.29162 32.3916C10.2866 37.3776 17.6395 40.3835 25.0596 40.7198C26.9431 40.8039 28.8139 40.7114 30.651 40.4508V45.853C29.2469 46.0296 27.8259 46.1136 26.4007 46.1136C25.8752 46.1136 25.3497 46.0968 24.8158 46.08C17.3116 45.7395 9.95028 43.1161 3.59375 38.6094"></path>
    <path stroke-linejoin="round" stroke-linecap="round" stroke="#0C2752" d="M66.0704 10.8584C62.6231 11.8379 59.6718 14.3183 57.738 16.8282C56.1278 18.9218 54.9212 21.192 53.7609 23.3907C52.9453 24.9336 52.176 26.3882 51.2889 27.7545C47.6524 33.3627 41.8088 37.5079 35.1748 39.4712V45.0163C43.6376 42.8933 51.1838 37.7685 55.7873 30.6679C56.8047 29.104 57.6665 27.477 58.4947 25.9047C59.6088 23.8069 60.7354 21.8856 61.9841 20.0989C63.2789 18.2491 65.3767 17.0257 66.5707 16.4372"></path>
  </g>
  <path stroke-linejoin="round" stroke-linecap="round" stroke="#0C2752" d="M66.4191 1.13867C66.2678 4.16139 66.2467 7.49941 66.3434 10.85C66.3981 12.725 66.4906 14.6001 66.6167 16.433C66.747 18.2912 66.911 20.099 67.1128 21.8058C67.9704 29.0872 70.5139 34.7669 74.7473 40.7787C84.1476 54.1266 99.2612 65.5532 115.779 67.403C120.984 67.9831 126.239 67.815 131.46 68.0756C135.681 68.2858 140.394 68.8576 144.06 71.1404C145.056 71.7626 145.96 72.5193 146.754 73.3853C147.389 74.079 147.919 74.8694 148.327 75.7144C148.604 76.2945 148.894 77.0387 148.894 77.8837C149.399 77.8584 150.635 77.7029 151.45 78.3377C152.392 79.0734 153.145 79.91 152.976 83.6895C153.073 84.2654 131.674 94.3047 104.167 94.3047C96.743 94.3047 88.028 93.3756 82.1507 91.0045C73.936 87.6917 46.4204 76.9294 46.4204 79.1197V94.1155L12.0229 94.1618C12.0229 94.1618 3.68623 75.0796 1.62204 70.6485C1.42865 70.2281 1.2731 69.9002 1.08812 69.4756C0.983021 69.2275 0.962 68.8029 1.07971 68.5339C1.29832 68.0336 1.88269 67.7099 2.34934 67.5333C3.07244 67.2558 3.56011 67.2558 4.31684 67.2054"></path>
  <path stroke-linejoin="round" stroke-linecap="round" stroke="#0C2752" d="M4.09407 1.0127C5.80512 11.0352 5.13668 21.8228 4.1193 32.3749C3.9175 34.4643 3.7031 36.5412 3.49289 38.6011C3.11453 42.2292 2.74878 45.8027 2.47131 49.2794C2.39564 50.2716 2.31996 51.2637 2.24849 52.2559C2.18964 53.1472 2.13078 54.0426 2.08033 54.9339C2.03829 55.7284 2.00045 56.5188 1.97523 57.3134C1.90376 59.5079 1.77344 61.9042 2.36621 64.0399C2.72776 65.3347 3.43404 66.3563 4.35472 67.1635C6.8183 69.3454 10.829 70.0306 13.8853 70.4721C19.4389 71.2708 25.0471 71.1531 30.6511 71.1657C32.1603 71.1657 33.6654 71.1783 35.1704 71.2246C35.3596 71.2246 35.553 71.233 35.7422 71.2372C41.6489 71.4306 47.6649 72.6582 53.3446 74.2809C54.9883 74.7518 56.6363 75.2563 58.2297 75.8785C58.2297 75.8785 80.3556 85.0854 80.3598 85.0854C85.1861 87.0907 90.2393 88.3225 95.4313 88.9573C108.258 90.5212 121.4 88.6798 133.713 84.9676C137.228 83.9082 140.68 82.7437 144.114 81.3143C146.41 80.36 148.915 78.6742 148.894 77.8838"></path>
  <path stroke-linejoin="round" stroke-linecap="round" stroke="#0C2752" d="M30.6509 45.8535V46.3328V71.1157"></path>
  <path stroke-linejoin="round" stroke-linecap="round" stroke="#0C2752" d="M30.651 1V40.4508"></path>
  <path stroke-linejoin="round" stroke-linecap="round" stroke="#0C2752" d="M35.1748 45.0166V45.1974V71.1154"></path>
  <path stroke-linejoin="round" stroke-linecap="round" stroke="#0C2752" d="M35.1748 1V39.4713"></path>
  <path stroke-linejoin="round" stroke-linecap="round" stroke="#0C2752" d="M4.29162 32.3916C10.2866 37.3776 17.6395 40.3835 25.0596 40.7198C26.9431 40.8039 28.8139 40.7114 30.651 40.4508V45.853C29.2469 46.0296 27.8259 46.1136 26.4007 46.1136C25.8752 46.1136 25.3497 46.0968 24.8158 46.08C17.3116 45.7395 9.95028 43.1161 3.59375 38.6094"></path>
  <path stroke-linejoin="round" stroke-linecap="round" stroke="#0C2752" d="M66.0704 10.8584C62.6231 11.8379 59.6718 14.3183 57.738 16.8282C56.1278 18.9218 54.9212 21.192 53.7609 23.3907C52.9453 24.9336 52.176 26.3882 51.2889 27.7545C47.6524 33.3627 41.8088 37.5079 35.1748 39.4712V45.0163C43.6376 42.8933 51.1838 37.7685 55.7873 30.6679C56.8047 29.104 57.6665 27.477 58.4947 25.9047C59.6088 23.8069 60.7354 21.8856 61.9841 20.0989C63.2789 18.2491 65.3767 17.0257 66.5707 16.4372"></path>
</svg>