<svg fill="none" viewBox="0 0 63 98" height="98" width="63" xmlns="http://www.w3.org/2000/svg">
  <path stroke-linejoin="round" stroke-linecap="round" stroke-width="0.75" stroke="#0C2752" d="M21.4294 31.1729L21.1616 31.3469L21.4294 31.5695C22.6331 32.5784 24.0873 33.1142 25.6424 33.1142C27.1974 33.1142 28.5681 32.2966 29.8136 31.3643C26.9226 29.4335 25.1832 28.8977 21.4294 31.1729Z"></path>
  <path stroke-linejoin="round" stroke-linecap="round" stroke-width="0.75" stroke="#0C2752" d="M29.8134 31.3641C29.8134 31.3641 29.8308 31.3745 29.8378 31.3815C29.8447 31.3745 29.8517 31.3676 29.8586 31.3641C29.8517 31.3606 29.8447 31.3536 29.8378 31.3467C29.8308 31.3536 29.8204 31.3606 29.8134 31.3641Z"></path>
  <path stroke-linejoin="round" stroke-linecap="round" stroke-width="0.75" stroke="#0C2752" d="M31.9183 29.2737L31.7339 28.9814L31.553 29.2737C31.0659 30.0112 30.5754 30.78 29.8657 31.361C30.5754 31.8689 31.219 32.6308 31.7373 33.3823C29.8727 36.1654 29.6291 40.9454 31.553 43.7111L31.7373 43.9859L31.9287 43.7041C33.856 40.761 33.609 36.635 31.7373 33.3927C32.2766 32.6447 32.9445 31.855 33.6368 31.3436C32.9306 30.7696 32.4505 30.0808 31.9217 29.2737H31.9183Z"></path>
  <path stroke-linejoin="round" stroke-linecap="round" stroke-width="0.75" stroke="#0C2752" d="M42.0869 31.1803C38.789 28.9886 36.4024 29.4026 33.6332 31.3473C34.8961 32.304 36.3537 33.1146 37.8044 33.1146C39.3108 33.1146 40.8102 32.5997 42.0869 31.5735L42.3653 31.3508L42.0869 31.1803Z"></path>
  <path stroke-linejoin="round" stroke-linecap="round" stroke-width="0.75" stroke="#0C2752" d="M45.6566 24.1143H17.8672"></path>
  <path stroke-linejoin="round" stroke-linecap="round" stroke-width="0.75" stroke="#0C2752" d="M45.6566 20.2344H17.8672"></path>
  <path stroke-linejoin="round" stroke-linecap="round" stroke-width="0.75" stroke="#0C2752" d="M45.6566 16.3564H17.8672"></path>
  <path stroke-linejoin="round" stroke-linecap="round" stroke-width="0.75" stroke="#0C2752" d="M45.6566 12.4736H17.8672"></path>
  <g opacity="0.15">
    <path stroke-width="0.75" stroke="#0C2752" fill="#0C2752" d="M1.37624 30.2858L1.37624 30.2858C1.52518 52.028 11.7383 76.3829 21.4081 91.0003L21.0953 91.2072L21.4081 91.0003C21.458 91.0758 21.5081 91.1517 21.5584 91.2279C22.1803 92.1699 22.8307 93.1551 23.5763 94.0105C24.381 94.9339 25.2712 95.6753 26.3114 96.0365C27.542 96.4632 29.2445 96.6246 31.699 96.6246C33.7985 96.6246 35.9725 96.4453 37.1567 96.0363C38.1931 95.6757 39.0733 94.9299 39.8741 94.0027C40.5351 93.2373 41.1213 92.3743 41.6922 91.5338C41.8152 91.3527 41.9375 91.1726 42.0597 90.9948L42.0598 90.9946C51.1115 77.8414 60.8921 51.6803 62.0919 30.2674C62.397 24.7988 61.5634 19.9346 60.6523 16.436C60.3255 15.1814 59.9891 14.1034 59.6922 13.2374C59.9256 16.3103 60.0406 18.9058 59.9988 20.0394C59.6088 30.6274 58.9432 37.7961 57.1516 45.2483C55.3611 52.6959 52.4493 60.4126 47.5854 72.0991L47.5854 72.0992C44.1621 80.322 40.1575 86.4347 35.7897 90.7639L35.7894 90.7642C35.6137 90.9379 35.358 91.0598 35.0923 91.1508C34.8175 91.2449 34.4901 91.3199 34.1345 91.3783C33.4225 91.4953 32.5632 91.5518 31.7125 91.5509C30.8618 91.55 30.006 91.4918 29.3009 91.3743C28.9489 91.3156 28.6255 91.2407 28.3555 91.1468C28.0956 91.0566 27.8426 90.9346 27.6722 90.7582C27.6721 90.7581 27.672 90.758 27.672 90.7579L27.9418 90.4975C23.7984 86.2115 17.7417 76.0949 14.5237 68.4901L1.37624 30.2858ZM1.37624 30.2858C1.33824 24.7981 2.17961 19.9288 3.03113 16.4306C3.29168 15.3602 3.55304 14.4188 3.79018 13.628L1.37624 30.2858Z"></path>
    <path stroke-linejoin="round" stroke-linecap="round" stroke-width="0.75" stroke="#0C2752" d="M57.895 1C58.3855 3.76224 58.7995 7.33506 59.1022 10.6713C59.4779 14.8216 59.6762 18.6101 59.624 20.0261C58.8447 41.1847 56.9661 48.5843 47.2392 71.9555C43.8299 80.1448 39.85 86.212 35.5257 90.498C34.6038 91.4094 28.808 91.3955 27.9417 90.498C23.7984 86.212 17.7416 76.0953 14.5237 68.4905C10.7734 59.6193 7.78158 50.449 5.58988 41.1047C3.95132 34.1191 3.80521 27.1891 3.84348 20.0261C3.85043 18.6101 4.04177 14.8286 4.39662 10.6852C4.68537 7.34551 5.07848 3.76572 5.57249 1"></path>
    <path stroke-linejoin="round" stroke-linecap="round" stroke-width="0.75" stroke="#0C2752" d="M59.1022 10.6709C59.1022 10.6709 63.0821 19.2533 62.4663 30.2884C61.2626 51.7705 51.4591 77.9979 42.3688 91.2072C41.0085 93.1867 39.53 95.608 37.2791 96.3908C36.0302 96.8222 33.8002 96.9996 31.699 96.9996C29.2394 96.9996 27.4826 96.8396 26.1884 96.3908C23.9341 95.608 22.4208 93.2111 21.0953 91.2072C11.3997 76.5507 1.15084 52.1254 1.00125 30.2884C0.924714 19.2359 4.38969 10.6848 4.38969 10.6848"></path>
  </g>
  <path stroke-linejoin="round" stroke-linecap="round" stroke-width="0.75" stroke="#0C2752" d="M57.895 1C58.3855 3.76224 58.7995 7.33506 59.1022 10.6713C59.4779 14.8216 59.6762 18.6101 59.624 20.0261C58.8447 41.1847 56.9661 48.5843 47.2392 71.9555C43.8299 80.1448 39.85 86.212 35.5257 90.498C34.6038 91.4094 28.808 91.3955 27.9417 90.498C23.7984 86.212 17.7416 76.0953 14.5237 68.4905C10.7734 59.6193 7.78158 50.449 5.58988 41.1047C3.95132 34.1191 3.80521 27.1891 3.84348 20.0261C3.85043 18.6067 4.04177 14.8251 4.39662 10.6783C4.68537 7.33854 5.07848 3.76572 5.57249 1"></path>
  <path stroke-linejoin="round" stroke-linecap="round" stroke-width="0.75" stroke="#0C2752" d="M59.1022 10.6709C59.1022 10.6709 63.0821 19.2533 62.4663 30.2884C61.2626 51.7705 51.4591 77.9979 42.3688 91.2072C41.0085 93.1867 39.53 95.608 37.2791 96.3908C36.0302 96.8222 33.8002 96.9996 31.699 96.9996C29.2394 96.9996 27.4826 96.8396 26.1884 96.3908C23.9341 95.608 22.4208 93.2111 21.0953 91.2072C11.3997 76.5507 1.15084 52.1254 1.00125 30.2884C0.924713 19.2359 4.39317 10.6779 4.39317 10.6779"></path>
</svg>